<svg width="16" height="12" fill="none" xmlns="http://www.w3.org/2000/svg"><path d="m1 5.872-.464-.186a.5.5 0 0 0 0 .371L1 5.872Zm13.641 0 .464.185a.5.5 0 0 0 0-.37l-.464.185Zm-6.82 4.372c-2.25 0-3.83-1.12-4.866-2.27a9.115 9.115 0 0 1-1.41-2.106 4.933 4.933 0 0 1-.078-.174l-.003-.008L1 5.872l-.464.186v.002a1.037 1.037 0 0 0 .028.065c.018.04.043.098.077.17a10.114 10.114 0 0 0 1.57 2.348c1.157 1.284 2.988 2.6 5.61 2.6v-1ZM1 5.872a69.614 69.614 0 0 1 .464.186l.003-.008a2.508 2.508 0 0 1 .079-.174 9.115 9.115 0 0 1 1.41-2.105C3.99 2.62 5.57 1.5 7.819 1.5v-1C5.2.5 3.368 1.816 2.212 3.101A10.114 10.114 0 0 0 .64 5.45a5.912 5.912 0 0 0-.104.235v.001H.535L1 5.873ZM7.82 1.5c2.25 0 3.83 1.12 4.866 2.27a9.115 9.115 0 0 1 1.41 2.106l.063.14.015.034.003.007v.001l.464-.186.464-.186v-.002a10.11 10.11 0 0 0-1.675-2.582C12.272 1.815 10.441.5 7.82.5v1Zm6.821 4.372-.464-.186-.003.008-.015.034a7.844 7.844 0 0 1-.334.659 9.115 9.115 0 0 1-1.139 1.586c-1.036 1.15-2.616 2.27-4.865 2.27v1c2.621 0 4.452-1.316 5.608-2.6A10.11 10.11 0 0 0 15 6.293a5.718 5.718 0 0 0 .105-.236l-.464-.186ZM7.821 7.32c-.8 0-1.45-.65-1.45-1.45h-1a2.449 2.449 0 0 0 2.45 2.45v-1Zm1.448-1.45c0 .8-.648 1.45-1.448 1.45v1a2.449 2.449 0 0 0 2.448-2.45h-1ZM7.821 4.424c.8 0 1.448.649 1.448 1.449h1a2.449 2.449 0 0 0-2.448-2.449v1Zm0-1a2.449 2.449 0 0 0-2.45 2.449h1c0-.8.65-1.449 1.45-1.449v-1Z" fill="#858585"/></svg>