<svg width="16" height="12" viewBox="0 0 16 12" fill="none" xmlns="http://www.w3.org/2000/svg">
<path d="M1 5.87179L0.535761 5.6861C0.48808 5.80531 0.48808 5.93828 0.535761 6.05749L1 5.87179ZM14.641 5.87179L15.1053 6.05749C15.1529 5.93828 15.1529 5.8053 15.1053 5.6861L14.641 5.87179ZM7.8205 10.2436C5.57059 10.2436 3.9906 9.12391 2.95497 7.97321C2.43681 7.39747 2.06128 6.82004 1.81562 6.38651C1.69307 6.17024 1.60361 5.99116 1.54551 5.86792C1.51648 5.80634 1.49534 5.75882 1.48185 5.7277C1.47511 5.71215 1.47029 5.70071 1.46737 5.69368C1.4659 5.69016 1.46491 5.68774 1.46439 5.68647C1.46413 5.68583 1.46399 5.68548 1.46396 5.68542C1.46395 5.68538 1.46397 5.68542 1.46401 5.68554C1.46404 5.6856 1.46409 5.68574 1.4641 5.68576C1.46417 5.68592 1.46424 5.6861 1 5.87179C0.535761 6.05749 0.535847 6.0577 0.53594 6.05794C0.535981 6.05804 0.536082 6.05829 0.536165 6.0585C0.53633 6.05891 0.536525 6.05939 0.53675 6.05995C0.537202 6.06107 0.537775 6.06248 0.53847 6.06418C0.53986 6.06759 0.54174 6.07216 0.544112 6.07787C0.548856 6.08927 0.555573 6.10518 0.564296 6.12531C0.581737 6.16556 0.607217 6.22271 0.640985 6.29434C0.708485 6.43752 0.809334 6.63906 0.945595 6.87952C1.21755 7.35945 1.63369 7.99996 2.21168 8.64217C3.36835 9.92737 5.19861 11.2436 7.8205 11.2436V10.2436ZM1 5.87179C1.46424 6.05749 1.46417 6.05767 1.4641 6.05782C1.46409 6.05785 1.46404 6.05799 1.46401 6.05805C1.46397 6.05816 1.46395 6.05821 1.46396 6.05817C1.46399 6.05811 1.46413 6.05776 1.46439 6.05712C1.46491 6.05585 1.4659 6.05343 1.46737 6.04991C1.47029 6.04288 1.47511 6.03144 1.48185 6.01588C1.49534 5.98477 1.51648 5.93725 1.54551 5.87567C1.60361 5.75242 1.69307 5.57335 1.81562 5.35708C2.06128 4.92355 2.43681 4.34612 2.95497 3.77038C3.9906 2.61968 5.57059 1.5 7.8205 1.5V0.5C5.19861 0.5 3.36835 1.81622 2.21168 3.10142C1.63369 3.74363 1.21755 4.38414 0.945595 4.86407C0.809334 5.10453 0.708485 5.30607 0.640985 5.44925C0.607217 5.52088 0.581737 5.57803 0.564296 5.61828C0.555573 5.63841 0.548856 5.65432 0.544112 5.66572C0.54174 5.67142 0.53986 5.676 0.53847 5.67941C0.537775 5.68111 0.537202 5.68252 0.53675 5.68364C0.536525 5.6842 0.53633 5.68468 0.536165 5.68509C0.536082 5.6853 0.535981 5.68555 0.53594 5.68565C0.535847 5.68589 0.535761 5.6861 1 5.87179ZM7.8205 1.5C10.0704 1.5 11.6504 2.61968 12.686 3.77038C13.2042 4.34612 13.5797 4.92355 13.8254 5.35708C13.948 5.57335 14.0374 5.75243 14.0955 5.87567C14.1245 5.93725 14.1457 5.98477 14.1592 6.01589C14.1659 6.03144 14.1707 6.04288 14.1737 6.04992C14.1751 6.05343 14.1761 6.05585 14.1766 6.05712C14.1769 6.05776 14.177 6.05811 14.1771 6.05818C14.1771 6.05821 14.1771 6.05817 14.177 6.05805C14.177 6.058 14.1769 6.05786 14.1769 6.05783C14.1769 6.05767 14.1768 6.05749 14.641 5.87179C15.1053 5.6861 15.1052 5.68588 15.1051 5.68565C15.105 5.68555 15.1049 5.6853 15.1049 5.68509C15.1047 5.68468 15.1045 5.6842 15.1043 5.68364C15.1038 5.68252 15.1032 5.68111 15.1026 5.6794C15.1012 5.676 15.0993 5.67142 15.0969 5.66572C15.0922 5.65432 15.0855 5.63841 15.0767 5.61828C15.0593 5.57803 15.0338 5.52088 15 5.44925C14.9325 5.30607 14.8317 5.10453 14.6954 4.86407C14.4235 4.38414 14.0073 3.74362 13.4293 3.10141C12.2727 1.81622 10.4424 0.5 7.8205 0.5V1.5ZM14.641 5.87179C14.1768 5.6861 14.1769 5.68592 14.1769 5.68576C14.1769 5.68573 14.177 5.68559 14.177 5.68554C14.1771 5.68542 14.1771 5.68538 14.1771 5.68541C14.177 5.68548 14.1769 5.68583 14.1766 5.68647C14.1761 5.68774 14.1751 5.69016 14.1737 5.69367C14.1707 5.70071 14.1659 5.71215 14.1592 5.7277C14.1457 5.75882 14.1245 5.80634 14.0955 5.86792C14.0374 5.99116 13.948 6.17024 13.8254 6.38651C13.5797 6.82004 13.2042 7.39747 12.686 7.97321C11.6504 9.12391 10.0704 10.2436 7.8205 10.2436V11.2436C10.4424 11.2436 12.2727 9.92737 13.4293 8.64217C14.0073 7.99997 14.4235 7.35945 14.6954 6.87952C14.8317 6.63906 14.9325 6.43752 15 6.29434C15.0338 6.22271 15.0593 6.16556 15.0767 6.12531C15.0855 6.10518 15.0922 6.08927 15.0969 6.07787C15.0993 6.07217 15.1012 6.06759 15.1026 6.06419C15.1032 6.06248 15.1038 6.06107 15.1043 6.05995C15.1045 6.05939 15.1047 6.05891 15.1049 6.0585C15.1049 6.05829 15.105 6.05804 15.1051 6.05794C15.1052 6.05771 15.1053 6.05749 14.641 5.87179ZM7.82051 7.32051C7.02041 7.32051 6.37179 6.6719 6.37179 5.87179H5.37179C5.37179 7.22418 6.46812 8.32051 7.82051 8.32051V7.32051ZM9.26923 5.87179C9.26923 6.6719 8.62062 7.32051 7.82051 7.32051V8.32051C9.1729 8.32051 10.2692 7.22418 10.2692 5.87179H9.26923ZM7.82051 4.42308C8.62062 4.42308 9.26923 5.07169 9.26923 5.87179H10.2692C10.2692 4.51941 9.1729 3.42308 7.82051 3.42308V4.42308ZM7.82051 3.42308C6.46812 3.42308 5.37179 4.51941 5.37179 5.87179H6.37179C6.37179 5.07169 7.02041 4.42308 7.82051 4.42308V3.42308Z" fill="#858585"/>
</svg>
